<svg width="207" height="40" viewBox="0 0 207 40" fill="none" xmlns="http://www.w3.org/2000/svg">
<g clip-path="url(#clip0_858_1321)">
<path d="M192.304 0.844727C196.502 2.0453 200.347 4.5318 203.117 8.253C204.676 10.3412 205.752 12.6285 206.383 14.9842C204.853 16.8391 202.998 18.1592 200.939 19.0695C197.685 20.071 194.107 20.3213 190.529 20.071C190.057 20.0368 189.591 20.0368 189.153 19.8377C188.84 19.7011 188.675 19.5134 188.624 19.2971C188.561 19.0183 188.653 18.6542 188.846 18.2502C189.011 17.9031 189.232 17.5731 189.431 17.2374C191.65 13.4707 192.907 9.81205 193.038 6.2843C193.106 4.43507 192.867 2.61999 192.304 0.844727Z" fill="white"/>
<path d="M201.917 21.8008C198.436 22.7624 194.483 22.7339 190.125 21.8349C189.739 21.7553 189.352 21.6529 188.959 21.6073C188.504 21.5504 188.123 21.5846 187.867 21.7325C187.668 21.8463 187.543 22.0568 187.497 22.3869C187.44 22.8477 187.583 23.2859 187.696 23.7354C188.555 27.1323 189.903 30.3641 191.883 33.0725C193.407 34.7055 195.273 36.0199 197.56 36.8677C199.659 35.559 201.553 33.8521 203.112 31.7639C205.882 28.0426 207.116 23.7069 206.991 19.4395C205.433 20.5092 203.743 21.2944 201.917 21.8008Z" fill="white"/>
<path d="M189.54 34.8364C187.521 31.9061 186.331 28.2247 185.859 23.906C185.819 23.5191 185.797 23.1322 185.723 22.751C185.638 22.3129 185.49 21.9658 185.268 21.778C185.097 21.6301 184.852 21.5732 184.517 21.6415C184.044 21.7325 183.664 21.9999 183.266 22.2446C180.222 24.0938 177.48 26.347 175.449 29.0213C174.335 30.9388 173.629 33.0725 173.51 35.4509C175.438 36.9986 177.685 38.2276 180.205 39.0242C184.688 40.4467 189.295 40.2589 193.413 38.8194C191.889 37.7041 190.604 36.3727 189.546 34.8364H189.54Z" fill="white"/>
<path d="M173.01 27.3769C175.245 24.5945 178.459 22.3583 182.526 20.5831C182.89 20.4238 183.26 20.2872 183.607 20.0994C184.01 19.8832 184.301 19.6442 184.415 19.3768C184.506 19.172 184.483 18.9273 184.318 18.6371C184.084 18.2275 183.709 17.96 183.345 17.6642C180.604 15.4109 177.566 13.5674 174.34 12.5091C172.122 12.0653 169.819 12.0653 167.458 12.6912C166.542 14.9557 166.042 17.4252 166.042 20.0027C166.042 24.6002 167.651 28.8164 170.324 32.1962C170.939 30.438 171.838 28.8335 173.01 27.3769Z" fill="white"/>
<path d="M175.165 9.73237C178.567 10.95 181.741 13.2374 184.727 16.4636C184.989 16.7481 185.245 17.0553 185.535 17.3171C185.871 17.6243 186.195 17.8178 186.49 17.8462C186.718 17.8633 186.951 17.7722 187.184 17.5219C187.509 17.1805 187.657 16.7424 187.833 16.3156C189.181 13.0724 190.04 9.68117 190.074 6.35257C189.824 4.16193 189.107 2.0282 187.77 0.0367252C185.279 -0.111213 182.719 0.184663 180.199 0.981255C175.717 2.40374 172.105 5.19752 169.637 8.72527C171.542 8.75372 173.385 9.08942 175.165 9.72667V9.73237Z" fill="white"/>
<path d="M5.22185 15.5703H6.39935L12.9864 6.59155H18.8738L10.7565 17.5106L19.6075 29.1977H13.7828L6.87715 20.3157H5.22185V29.1977H0V6.59155H5.22185V15.5703ZM45.8704 11.1777H38.9933V29.1977H33.7714V11.1777H26.8658V6.59155H45.8704V11.1777ZM52.395 29.5163C50.9955 29.5163 49.7384 29.2887 48.6236 28.8335C47.5087 28.3783 46.5644 27.7581 45.7908 26.9729C45.0171 26.1877 44.4256 25.2773 44.0217 24.2531C43.6179 23.2232 43.4188 22.1478 43.4188 21.0212C43.4188 19.8093 43.6179 18.6713 44.0217 17.5959C44.4256 16.5262 45.0115 15.5874 45.7737 14.7794C46.5359 13.9714 47.4745 13.3341 48.5894 12.8676C49.7043 12.401 50.973 12.1677 52.395 12.1677C53.817 12.1677 55.08 12.401 56.1835 12.8676C57.287 13.3341 58.2195 13.9657 58.9875 14.7623C59.75 15.5589 60.33 16.475 60.7225 17.5162C61.115 18.5575 61.3085 19.65 61.3085 20.7993C61.3085 21.0952 61.297 21.3854 61.2745 21.6756C61.2515 21.9601 61.223 22.2104 61.1775 22.421H48.8284C48.9137 23.5476 49.3232 24.4011 50.0515 24.9871C50.785 25.5732 51.6155 25.8634 52.5485 25.8634C53.2935 25.8634 54.0105 25.6813 54.6985 25.3228C55.387 24.9644 55.8475 24.475 56.0865 23.8605L60.4155 25.0725C59.7555 26.3868 58.7375 27.4622 57.361 28.2873C55.9785 29.1123 54.323 29.5277 52.395 29.5277V29.5163ZM55.9275 19.2631C55.819 18.2047 55.438 17.3626 54.784 16.7481C54.124 16.1336 53.3105 15.8263 52.3325 15.8263C51.354 15.8263 50.512 16.1393 49.8636 16.7652C49.2152 17.3911 48.8397 18.2275 48.7316 19.2631H55.9275ZM61.8775 24.805C62.452 24.7823 62.924 24.6856 63.2935 24.5035C63.6635 24.3214 63.9705 23.9857 64.215 23.485C64.46 22.9843 64.659 22.2958 64.818 21.4138C64.9775 20.5319 65.1425 19.3712 65.313 17.9259L65.8875 12.4807H78.3675V29.1977H73.2765V16.8448H70.3185L70.0625 18.7225C69.784 20.7823 69.46 22.4836 69.09 23.8321C68.7205 25.1806 68.231 26.256 67.628 27.0639C67.0195 27.8719 66.2685 28.4466 65.37 28.7823C64.4655 29.1237 63.3505 29.3001 62.014 29.3228L61.8885 24.7994L61.8775 24.805ZM89.892 29.5163C88.493 29.5163 87.2355 29.2887 86.121 28.8335C85.006 28.3783 84.0615 27.7581 83.288 26.9729C82.5145 26.1877 81.923 25.2773 81.5245 24.2531C81.121 23.2232 80.9215 22.1478 80.9215 21.0212C80.9215 19.8093 81.121 18.6713 81.5245 17.5959C81.9285 16.5262 82.5085 15.5874 83.2765 14.7794C84.039 13.9714 84.9775 13.3341 86.0925 12.8676C87.2075 12.401 88.4755 12.1677 89.898 12.1677C91.32 12.1677 92.5825 12.401 93.686 12.8676C94.7895 13.3341 95.7225 13.9657 96.485 14.7623C97.247 15.5589 97.8275 16.475 98.22 17.5162C98.6125 18.5575 98.8115 19.65 98.8115 20.7993C98.8115 21.0952 98.8 21.3854 98.777 21.6756C98.7545 21.9601 98.726 22.2104 98.6805 22.421H86.3315C86.4165 23.5476 86.826 24.4011 87.554 24.9871C88.288 25.5732 89.1185 25.8634 90.0515 25.8634C90.791 25.8634 91.5075 25.6813 92.2015 25.3228C92.89 24.9644 93.3505 24.475 93.584 23.8605L97.9125 25.0725C97.253 26.3868 96.2345 27.4622 94.858 28.2873C93.476 29.1123 91.8205 29.5277 89.892 29.5277V29.5163ZM93.4245 19.2631C93.3165 18.2047 92.9355 17.3626 92.281 16.7481C91.6215 16.1336 90.808 15.8263 89.8295 15.8263C88.851 15.8263 88.0095 16.1393 87.361 16.7652C86.7125 17.3911 86.337 18.2275 86.229 19.2631H93.4245ZM111.599 12.4807H117.043L110.518 20.566L117.583 29.1977H111.724L106.883 23.2403H106.217V29.1977H101.189V12.4807H106.217V18.751H106.792L111.599 12.4807ZM126.303 29.5163C124.881 29.5163 123.612 29.283 122.497 28.8164C121.382 28.3499 120.444 27.7183 119.682 26.9217C118.92 26.1251 118.34 25.2033 117.947 24.1507C117.554 23.0981 117.355 21.9999 117.355 20.8562C117.355 19.7126 117.554 18.6087 117.947 17.5618C118.34 16.5091 118.92 15.5874 119.682 14.7908C120.444 13.9942 121.382 13.3569 122.497 12.879C123.612 12.401 124.881 12.162 126.303 12.162C127.725 12.162 128.988 12.401 130.092 12.879C131.195 13.3569 132.127 13.9942 132.895 14.7908C133.658 15.5874 134.244 16.5091 134.648 17.5618C135.052 18.6144 135.251 19.7126 135.251 20.8562C135.251 21.9999 135.051 23.0981 134.659 24.1507C134.266 25.2033 133.686 26.1251 132.924 26.9217C132.162 27.7183 131.224 28.3499 130.109 28.8164C128.993 29.283 127.725 29.5163 126.303 29.5163ZM122.577 20.8562C122.577 22.1706 122.93 23.2289 123.63 24.0255C124.329 24.8221 125.222 25.2204 126.303 25.2204C126.832 25.2204 127.321 25.1123 127.765 24.9018C128.208 24.6912 128.596 24.3897 128.925 24.0085C129.255 23.6272 129.517 23.1663 129.704 22.6201C129.898 22.0796 129.989 21.4878 129.989 20.8562C129.989 19.5419 129.636 18.4835 128.936 17.6869C128.237 16.8904 127.355 16.4921 126.297 16.4921C125.768 16.4921 125.273 16.6002 124.818 16.8107C124.363 17.0212 123.97 17.3228 123.641 17.704C123.311 18.0852 123.055 18.5461 122.862 19.0867C122.668 19.6272 122.577 20.219 122.577 20.8562ZM147.663 20.4124L152.213 12.4863H157.464V29.2034H152.622V20.1279L148.771 26.7851H146.514L142.663 20.1279V29.2034H137.822V12.4863H143.106L147.657 20.4124H147.663Z" fill="white"/>
</g>
<defs>
<clipPath id="clip0_858_1321">
<rect width="207" height="40" fill="white"/>
</clipPath>
</defs>
</svg>
